<?xml version="1.0" encoding="UTF-8"?>
<svg width="200px" height="47px" viewBox="0 0 200 47" version="1.1" xmlns="http://www.w3.org/2000/svg" xmlns:xlink="http://www.w3.org/1999/xlink">
    <!-- Generator: Sketch 48.2 (47327) - http://www.bohemiancoding.com/sketch -->
    <title>weblogo178CCB_navy (1)</title>
    <desc>Created with Sketch.</desc>
    <defs></defs>
    <g id="Page-1" stroke="none" stroke-width="1" fill="none" fill-rule="evenodd">
        <g id="weblogo178CCB_navy-(1)" fill="#122147" fill-rule="nonzero">
            <g id="Group" transform="translate(95.530726, 13.024096)">
                <polygon id="Shape" points="0.378212291 0.490385542 2.82793296 0.490385542 2.82793296 24.4530241 17.2446927 24.4530241 17.2446927 26.5736867 0.378212291 26.5736867"></polygon>
                <path d="M19.3396648,0.490385542 L21.6094972,0.490385542 L21.6094972,4.18016867 L19.3396648,4.18016867 L19.3396648,0.490385542 Z M19.3396648,7.72328916 L21.6094972,7.72328916 L21.6094972,26.574253 L19.3396648,26.574253 L19.3396648,7.72328916 Z" id="Shape"></path>
                <path d="M25.9715084,0.490385542 L28.2418994,0.490385542 L28.2418994,11.3032169 L28.3145251,11.3032169 C29.2893855,8.60043373 31.9910615,7.17627711 34.7659218,7.17627711 C40.4240223,7.17627711 43.1290503,11.8156867 43.1290503,17.1482048 C43.1290503,22.4807229 40.4240223,27.1212651 34.7659218,27.1212651 C31.7748603,27.1212651 29.1815642,25.551012 28.1340782,22.9920602 L28.0636872,22.9920602 L28.0636872,26.5736867 L25.9715084,26.5736867 L25.9715084,0.490385542 Z M34.7659218,9.11177108 C29.9368715,9.11177108 28.2418994,13.2381446 28.2418994,17.1482048 C28.2418994,21.0576988 29.9368715,25.1840723 34.7659218,25.1840723 C39.0905028,25.1840723 40.8586592,21.0576988 40.8586592,17.1482048 C40.8592179,13.2381446 39.0910615,9.11177108 34.7659218,9.11177108 Z" id="Shape"></path>
                <path d="M46.6653631,7.72328916 L48.7575419,7.72328916 L48.7575419,12.1446867 L48.8273743,12.1446867 C49.9826816,9.11233735 52.5039106,7.32124096 55.8564246,7.46733735 L55.8564246,9.76977108 C51.7480447,9.54949398 48.9351955,12.6169518 48.9351955,16.5275783 L48.9351955,26.574253 L46.6653631,26.574253 L46.6653631,7.72328916 Z" id="Shape"></path>
                <path d="M57.8061453,13.4957952 C58.0223464,9.07439759 61.0860335,7.17627711 65.3402235,7.17627711 C68.6195531,7.17627711 72.1882682,8.19781928 72.1882682,13.2381446 L72.1882682,23.2502771 C72.1882682,24.1257229 72.6201117,24.6370602 73.5217877,24.6370602 C73.7726257,24.6370602 74.0620112,24.5628795 74.2424581,24.4920964 L74.2424581,26.4264578 C73.7379888,26.535747 73.3759777,26.574253 72.7636872,26.574253 C70.4586592,26.574253 70.096648,25.258253 70.096648,23.2853855 L70.0240223,23.2853855 C68.4396648,25.7339157 66.8173184,27.1212651 63.2486034,27.1212651 C59.8256983,27.1212651 57.0162011,25.4026506 57.0162011,21.6052771 C57.0162011,16.3084337 62.0960894,16.1243976 66.9977654,15.5422771 C68.8715084,15.3203012 69.9162011,15.0660482 69.9162011,12.9838916 C69.9162011,9.87906024 67.7189944,9.11120482 65.0519553,9.11120482 C62.2391061,9.11120482 60.1502793,10.425506 60.077095,13.4952289 L57.8061453,13.4952289 L57.8061453,13.4957952 Z M69.9150838,16.272759 L69.8446927,16.272759 C69.5558659,16.8197711 68.5463687,17.003241 67.9335196,17.1125301 C64.0765363,17.804506 59.2854749,17.7688313 59.2854749,21.4603133 C59.2854749,23.7610482 61.3011173,25.1840723 63.4290503,25.1840723 C66.8893855,25.1840723 69.9530726,22.9563855 69.9150838,19.2654699 L69.9150838,16.272759 Z" id="Shape"></path>
                <path d="M76.7340782,7.72328916 L78.822905,7.72328916 L78.822905,12.1446867 L78.8960894,12.1446867 C80.0486034,9.11233735 82.5726257,7.32124096 85.9223464,7.46733735 L85.9223464,9.76977108 C81.8139665,9.54949398 79.0039106,12.6169518 79.0039106,16.5275783 L79.0039106,26.574253 L76.7340782,26.574253 L76.7340782,7.72328916 Z" id="Shape"></path>
                <path d="M87.4402235,7.72328916 L89.8564246,7.72328916 L95.9837989,23.7972892 L101.714525,7.72328916 L103.984358,7.72328916 L95.9106145,29.4610723 C94.6122905,32.637253 93.8564246,33.5517711 91.0089385,33.5517711 C90.1078212,33.5166627 89.6407821,33.5166627 89.2787709,33.3683012 L89.2787709,31.434506 C89.8212291,31.5432289 90.326257,31.6145783 90.8307263,31.6145783 C92.8469274,31.6145783 93.3167598,30.4106988 94.0726257,28.6564096 L94.8664804,26.5006386 L87.4402235,7.72328916 Z" id="Shape"></path>
            </g>
            <path d="M82.0301676,17.6182048 L82.0301676,12.6390361 L63.3441341,12.6390361 L63.3441341,30.9854578 C63.2452514,28.8347831 62.4703911,27.1671325 61.0044693,25.9955301 C59.9921788,25.1818072 58.4687151,24.5368313 56.4363128,24.0515422 L51.8027933,22.9422289 C50.0139665,22.5192289 48.8441341,22.1517229 48.2955307,21.8363133 C47.7877095,21.5571446 47.4335196,21.1930361 47.2273743,20.746253 L47.224581,20.7479518 C47.2234637,20.7434217 47.2234637,20.7400241 47.2217877,20.7371928 C47.0832402,20.4308434 47.0044693,20.0729639 47.0044693,19.6901687 C47.0044693,18.8707831 47.2815642,18.1725783 47.8581006,17.6244337 C47.8581006,17.6227349 47.8581006,17.6227349 47.8581006,17.6227349 C47.8709497,17.6108434 47.8826816,17.5989518 47.8960894,17.588759 L47.8960894,17.5870602 C47.8960894,17.5853614 47.8960894,17.5853614 47.8972067,17.5870602 C48.022905,17.4704096 48.1614525,17.3611205 48.3128492,17.2586265 C49.1826816,16.6776386 50.3452514,16.3877108 51.8027933,16.3877108 C53.1128492,16.3877108 54.2083799,16.6113855 55.0910615,17.0593012 C56.4128492,17.738253 57.1217877,18.8815422 57.2206704,20.492 L62.5223464,20.492 C62.426257,17.6487831 61.3826816,15.4777229 59.3944134,13.9810843 C57.4061453,12.4872771 55.001676,11.739241 52.1860335,11.739241 C48.8128492,11.739241 46.2553073,12.5314458 44.5134078,14.1181205 C43.4441341,15.0932289 42.7044693,16.2229277 42.2916201,17.5038193 L42.2888268,17.5038193 C42.2011173,17.7801566 42.1268156,18.0666867 42.0681564,18.3571807 C41.4217877,21.4444578 39.4608939,23.5402048 36.1815642,23.5402048 C30.9335196,23.5402048 28.9614525,19.0134819 28.9614525,14.5235663 C28.9614525,9.80771084 30.9335196,5.28268675 36.1815642,5.28268675 C39.0849162,5.28268675 41.6145251,7.3189759 41.9865922,9.99571084 L47.6441341,9.99571084 C46.9379888,3.7730241 42.0240223,0.301819277 36.1810056,0.301819277 C28.3363128,0.301819277 23.577095,5.96277108 23.152514,13.4244458 L23.152514,0.94339759 L17.3083799,0.94339759 L17.3083799,17.6923855 C17.3083799,21.6924819 15.9675978,23.5396386 11.7994413,23.5396386 C7.0726257,23.5396386 6.32681564,20.6352651 6.32681564,17.6923855 L6.32681564,0.94339759 L0.48547486,0.94339759 L0.48547486,17.6923855 C0.48547486,25.0102289 4.65363128,28.5210723 11.7994413,28.5210723 C18.9106145,28.5210723 23.1530726,24.9745542 23.1530726,17.6923855 L23.1530726,15.5926747 C23.5776536,22.8578554 28.3363128,28.5210723 36.1815642,28.5210723 C39.4055866,28.5210723 42.1541899,27.464988 44.1821229,25.5866867 C44.3078212,25.6903133 44.4363128,25.7905422 44.5715084,25.8851084 C45.6234637,26.6246506 47.5536313,27.3081325 50.3636872,27.9378193 L53.2217877,28.5737349 C54.8949721,28.9344458 56.1178771,29.3512169 56.8893855,29.8246145 C57.6581006,30.3093373 58.0435754,30.9928193 58.0435754,31.8773253 C58.0435754,33.3915181 57.2586592,34.4238193 55.6843575,34.9827229 C54.8558659,35.2726506 53.7759777,35.4176145 52.4452514,35.4176145 C50.227933,35.4176145 48.6592179,34.8672048 47.7458101,33.7641205 C47.2452514,33.1610482 46.9083799,32.2470964 46.7391061,31.0256627 L41.472067,31.0256627 C41.472067,33.8082892 42.4670391,35.9969036 44.4586592,37.5886747 C46.4513966,39.1798795 49.1854749,39.9754819 52.6625698,39.9754819 C56.0675978,39.9754819 58.7011173,39.167988 60.5670391,37.5535663 C62.2815642,36.0654217 63.2067039,34.2261928 63.3435754,32.0404096 L63.3435754,39.5734337 L69.1882682,39.5734337 L69.1882682,28.4446265 L80.3167598,28.4446265 L80.3167598,23.8431566 L69.1882682,23.8431566 L69.1882682,17.6176386 L82.0301676,17.6176386 L82.0301676,17.6182048 Z" id="Shape"></path>
        </g>
    </g>
</svg>